<svg xmlns="http://www.w3.org/2000/svg" xml:space="preserve" width="720" height="654.429" viewBox="0 0 720 654.429"><path d="M716.58 247.218c-16.096-42.627-37.924-83.546-58.459-123.434-.805-2.137-3.693-3.078-5.668-1.547-57.173 31.05-132.979 79.26-180.95 111.877-3.676 2.313-3.931 3.554-1.331 7.049 24.194 35.256 48.227 70.63 72.493 105.831-19.656 7.439-38.628 12.249-52.795 20.409-.942 2.441 4.77 13.214 5.466 15.865 16.702 50.016 30.598 35.302-14.184 56.548-7.357 1.923-.192 9.269 1.049 13.331 4.267 8.538 8.195 17.26 12.615 25.709-7.367 3.757-15.092 7.686-22.516 11.478-12.879-65.096-30.966-128.839-39.422-194.93-6.326-41.081-4.411-89.788-26.012-125.617 29.932-6.889 63.101-15.023 94.144-33.363 32.836-17.695 72.307-44.255 89.649-77.92-60.861-3.386-112.917 7.131-170.654 35.556-21.451 10.612-38.28 20.935-52.964 32.488-4.912.193-10.581-6.127-15.841-7.011-46.23-18.297-110.605-18.786-159.571 3.017-4.381 2.796-4.901 3.649-7.677-1.57C131.845 62.891 75.477 16.822 2.929 2.321 21.903 67.126 93.205 133.52 148.272 161.089c-10.647 19.597-13.836 36.382-15.728 61.836 2.339 31.111-24.086 45.805-13.177 73.423 8.327 19.31 20.951 33.563 36.157 49.473.648.904.959.461.211 1.377-2.492 2.673-4.274 5.793-6.115 8.825-27.463 43.628-20.785 95.428 9.195 136.846-20.593 39.57-34.876 74.971 8.801 104.809-8.239 7.678-30.316 38.31-9.178 42.438 9.048 5.023 41.138-20.671 48.263-28.825 26.21-1.697 50.673-1.643 73.026-6.078 27.59 2.536 50.555 10.662 77.559 13.351-2.912 4.761-15.164 30.587-4.456 30.865 1.714-.066 2.175-.036 2.507 1.316 5.627 3.484 16.421-.43 21.569-3.747 17.246-11.177 28.862-21.466 37.666-33.362 12.992-6.932 24.778-14.999 32.965-27.623 21.748-27.774 24.618-51.342 27.934-75.619 6.762-4.464 52.26-12.852 46.038-20.945-4.036-9.45-8.096-19.073-12.203-28.474-.462-1.77-.889-.871.603-1.83 7.91-5.744 46.542-14.77 43.563-24.022-13.344-59.047-29.719-42.27 24.954-61.882 3.49-1.971 16.53-2.741 12.636-9.488-6.513-20.701-13.099-42.04-19.669-62.687-.308-2.063-.891-1.144.973-2.005 49.218-13.816 97.4-29.591 141.768-46.524 2.179-.292 3.79-3.44 2.446-5.319z"/><path d="M175.05 206.157c-6.753-1.187-12.891.346-17.873 5.31-8.027 7.998-10.039 23.587-4.37 33.374 6.151 10.616 20.862 12.252 29.265 3.353 5.038-5.335 5.818-11.925 6.033-18.749.073-4.365-.465-8.651-2.162-12.673-2.12-5.028-4.988-9.577-10.893-10.615zm3.44 21.643c-3.015 2.89-6.931 2.313-9.161-1.227-2.042-3.242-1.59-8.684.97-11.644 3.188-3.687 8.027-2.997 10.02 1.454.746 1.664.9 3.466.997 5.258.194 2.578-1.113 4.518-2.826 6.159zm152.014 72.194c-.65 16.08 12.831 30.526 30.852 30.654 17.199.124 31.29-13.912 31.185-30.871-.106-16.913-14.077-30.613-31.203-30.598-17.136.014-30.86 13.727-30.834 30.815zm31.345-28.825c16.32.238 28.914 13.132 28.712 29.4-.195 15.701-13.402 28.305-29.461 28.112-15.556.005-29.369-12.573-28.845-29.742.466-15.329 13.706-28.002 29.594-27.77zm-20.342-15.967c7.778-4.131 10.246-11.869 10.356-19.031.911-19.714-19.539-33.797-36.609-26.573-9.963 4.216-14.862 12.776-13.728 25.181 1.707 18.617 20.885 30.569 39.981 20.423zm-21.655-41.076c4.745-.067 8.556 3.855 8.579 8.819.023 6.453-3.999 10.613-10.294 10.644-5.468.029-8.535-3.142-8.538-8.82 0-5.908 4.484-10.562 10.253-10.643zm83.923 218.387c-.934 3.108-2.296 6.035-3.77 8.914-6.74 13.182-14.699 25.509-25.227 36.037-9.047 8.113-18.45 15.762-28.939 21.974-2.858 1.694-5.62 3.664-8.671 4.906-7.245 2.95-13.726 6.82-19.017 12.716-2.342 2.606-3.567 2.332-5.051-.739-1.281-2.658-2.543-3.214-5.206-1.666-3.062 1.781-3.193 1.557-4.816-1.612-.124-.239-.257-.475-.379-.716-1.756-3.434-1.788-3.542-5.477-2.388-2.271.71-3.703.45-3.988-2.176-.298-2.778-1.456-4.171-4.513-3.218-2.11.657-3.015-.434-2.868-2.544.043-.624-.085-1.272.018-1.885.39-2.323-.543-3.136-2.889-3.241-3.485-.156-3.968-.884-1.972-3.547 3.637-4.846 3.414-10.408 3.699-15.918 1.366-26.315 9.607-50.287 24.426-72.043 7.53-11.056 17.03-20.156 27.709-28.097.408-.303.785-.788 1.634-.439.009 1.221-1.148 1.635-1.855 2.223-10.925 9.068-20.888 19.029-28.439 31.141-11.423 18.322-19.031 38.01-20.835 59.708-.225 2.686-.684 5.356-.808 8.044-.265 5.813.241 11.777-4.944 17.108 6.004-.67 6.755 2.337 6.243 6.366-.17 1.347.629 1.297 1.699 1.168 4.086-.505 4.137-.473 5.184 3.581.376 1.472.592 2.376 2.608 1.758 4.577-1.405 4.743-1.32 6.8 3.122.996 2.153 1.906 2.654 4.123 1.497 4.091-2.14 3.444-2.406 5.751 1.71 1.536 2.734 1.816 2.932 3.887.535 4.656-5.383 10.677-8.42 16.951-11.48 13.147-6.41 25.028-14.819 35.705-24.865 6.325-5.404 11.719-11.639 16.325-18.54 5.932-8.898 11.506-18.009 15.629-27.929.193-.466.542-.872.861-1.371.961.583.607 1.261.412 1.906zM716.58 247.218c-16.096-42.627-37.924-83.547-58.459-123.434-.805-2.137-3.693-3.078-5.668-1.547-57.173 31.05-132.979 79.26-180.95 111.877-3.676 2.313-3.931 3.554-1.331 7.049 24.194 35.256 48.227 70.63 72.493 105.831-19.656 7.439-38.628 12.249-52.795 20.409-.942 2.441 4.77 13.214 5.466 15.865 16.702 50.016 30.598 35.302-14.184 56.548-7.358 1.923-.192 9.269 1.049 13.331 4.267 8.538 8.195 17.26 12.615 25.709-7.367 3.757-15.092 7.686-22.516 11.478-12.879-65.096-30.966-128.839-39.422-194.93-6.325-41.081-4.411-89.788-26.012-125.617 29.932-6.889 63.101-15.023 94.144-33.363 32.836-17.695 72.307-44.255 89.649-77.92-60.861-3.386-112.917 7.131-170.654 35.556-21.451 10.612-38.28 20.935-52.964 32.488-4.912.193-10.581-6.127-15.841-7.011-46.23-18.297-110.605-18.786-159.571 3.017-4.381 2.796-4.901 3.649-7.677-1.57C131.845 62.891 75.477 16.822 2.929 2.321 21.903 67.126 93.204 133.52 148.272 161.089c-10.647 19.597-13.836 36.382-15.728 61.836 2.339 31.111-24.086 45.805-13.177 73.422 8.327 19.31 20.951 33.563 36.157 49.473.648.904.959.461.211 1.377-2.492 2.673-4.274 5.793-6.115 8.825-27.463 43.628-20.785 95.428 9.195 136.846-20.593 39.57-34.876 74.971 8.8 104.809-8.239 7.678-30.316 38.31-9.178 42.438 9.048 5.023 41.138-20.671 48.263-28.825 26.21-1.697 50.673-1.643 73.026-6.079 27.59 2.536 50.555 10.662 77.559 13.351-2.912 4.761-15.164 30.587-4.456 30.865 1.714-.066 2.175-.036 2.507 1.316 5.627 3.484 16.421-.43 21.569-3.747 17.245-11.177 28.862-21.466 37.666-33.362 12.992-6.932 24.778-14.999 32.965-27.623 21.748-27.774 24.618-51.342 27.934-75.619 6.762-4.464 52.26-12.853 46.038-20.945-4.036-9.45-8.096-19.073-12.203-28.474-.462-1.77-.889-.871.603-1.83 7.91-5.744 46.542-14.77 43.563-24.022-13.344-59.047-29.719-42.27 24.954-61.882 3.49-1.971 16.53-2.741 12.635-9.488-6.513-20.701-13.099-42.04-19.669-62.687-.308-2.063-.891-1.144.973-2.005 49.218-13.816 97.4-29.591 141.768-46.524 2.181-.29 3.792-3.438 2.448-5.317zM467.742 481.45c1.651 8.563 2.58 17.208 3.168 26.492.074 2.521.074 2.521-3.184 2.009-10.558-1.664-20.684-4.456-29.607-10.705-4.901-3.435-4.938-4.107.223-7.066 8.698-4.982 18.182-8.129 27.422-11.853 1.22-.493 1.716-.241 1.978 1.123zm-22.613-98.494a1667.586 1667.586 0 0 0 5.634 25.976c.331 1.467-.087 1.814-1.393 1.538-11.667-1.839-23.053-4.589-33.143-11.077-5.349-3.439-5.303-4.94.046-8.244 8.287-5.122 17.608-7.424 26.938-9.685 1.225-.296 1.659.238 1.918 1.492zm-314.725-72.317c-4.818-8.221-9.799-16.338-11.08-26.092-.652-4.97.652-9.421 2.797-13.751 1.834-3.702 3.831-7.328 5.545-11.085.846-1.855 1.74-1.464 2.784-.472 2.872 2.729 4.619 6.183 5.87 9.863 2.01 5.917 2.912 12.031 2.783 17.899.083 6.834-.893 13.089-3.332 19.09a13.687 13.687 0 0 1-3.13 4.659c-.862.852-1.473 1.193-2.237-.111zm261.814 321.366c-7.204 5.794-14.334 11.699-22.966 15.335-1.233.521-2.856 1.864-3.857.836-1.065-1.1.317-2.672.932-3.916 2.243-4.509 4.924-8.758 7.879-12.838.537-.739 1.478-1.359 1.244-2.523-.842-.452-1.162.259-1.524.682-4.382 5.161-8.12 10.73-10.684 17.032-.679 1.676-3.182 2.927-4.83 2.454-1.386-.399-.785-1.451-.647-2.211a50.587 50.587 0 0 1 6.029-16.325c.721-1.244 1.455-2.482 2.091-3.767.356-.721 1.513-1.607.448-2.298-1.056-.684-1.469.648-1.912 1.339-3.494 5.475-6.458 11.219-7.803 17.619-.448 2.135-1.671 2.7-3.466 2.996-1.247.207-1.632-.289-1.481-1.451 1.217-9.369 3.942-18.212 9.043-26.247.636-1.003 1.423-.897 2.323-.753 7.895-.083 15.79.34 23.682-.51 7.512-.806 14.922-2.034 22.188-4.114.599-.17 1.162-.503 2.059-.133-5.589 7.012-11.463 13.594-18.748 18.793zm62.978-63.287c-3.363 5.84-6.843 11.607-11.269 16.735-10.606 15.643-25.42 24.601-43.866 28.154-19.426 3.744-38.774 3.379-58.113-.317-15.512-2.961-30.962-6.267-46.494-9.128-13.93-2.562-27.996-3.342-42.134-1.894-.228.023-.443.174-.667.753h15.844l.039.737c-7.431.923-14.847 1.997-22.297 2.732-10.744 1.06-21.518 1.327-32.313.659-9.155-.567-18.261-1.387-27.184-3.639-.435-.11-.875-.22-1.319-.266-.512-.051-1.182-.209-1.325.496-.137.675.508.919 1.004 1.033 3.407.799 6.803 1.655 10.24 2.296 3.06.567 6.167.882 9.742 1.372-4.877 6.196-10.966 10.416-16.986 14.713l-.001-.002v.002c-7.617 5.599-15.726 10.383-24.238 14.484-.751.36-1.739 1.125-2.471.459-.717-.652-.092-1.683.14-2.535 1.079-3.946 3.816-6.866 6.215-9.988 1.179-1.533 2.472-2.982 3.823-4.6l.006-.008-.01-.003c-1.558-.67-2.14.386-2.73.993-3.886 4.004-7.677 8.088-9.312 13.639-.544 1.846-2.194 1.788-3.519 1.563-1.694-.287-1.151-1.743-.886-2.84 1.502-6.224 4.674-11.612 8.388-16.736.598-.824 1.64-1.419 1.27-2.846-5.864 4.88-9.038 11.54-11.711 18.827-1.918-7.179 7.57-25.87 16.73-33.501 1.42-2.925 3.924-.464 5.796-.96.048-.799-.45-.907-.821-1.088-13.62-6.605-22.852-17.461-29.678-30.645-.116-.227-.102-.519-.149-.783-3.928-10.032-4.319-20.308-1.793-30.684 1.516-6.23 4.222-12.025 7.363-17.603 4.244-7.537 7.499-15.523 10.729-23.521.657-1.623 1.052-1.906 2.416-.487 2.809 2.929 5.639 5.7 5.979 10.131.173 2.261 1.614 2.842 3.633 1.669.621-.358 1.343-.574 1.902-1.006 1.951-1.508 3.74-1.368 5.502.313 1.903 1.818 3.561 1.318 4.828-.739 1.364-2.213 2.882-2.277 4.735-.654.467.406 1.062.67 1.601.994 1.908 1.141 3.08.705 3.874-1.465 1.289-3.519 1.382-3.48 4.995-2.58.784.195 1.578.347 2.364.535 1.675.404 2.585-.305 2.855-1.947.305-1.862.747-3.714.864-5.59.111-1.791.853-2.599 2.624-2.525.259.014.523-.122.787-.172 4.193-.799 4.155-.788 2.837-4.931-.818-2.573-.108-5.193.122-7.755 1.356-15.078 2.014-30.154.314-45.243-1.767-15.668-6.884-30.241-14.61-43.937-.172-.303-.42-.576-.676-.817-.106-.096-.33-.069-.609-.115-.593 1.083.311 1.813.687 2.608 5.823 12.303 10.807 24.885 12.789 38.46 1.817 12.429 1.778 24.92 1.031 37.422-.327 5.473-.843 10.934-1.248 16.405-.06.801-.278 1.782.075 2.395 1.993 3.453-.254 3.859-2.778 3.928-2.347.064-3.013 1.419-3.193 3.437-.191 2.133.171 4.947-1.287 6.127-1.417 1.143-3.889-.445-5.833-1.003-2.08-.594-2.468.668-2.996 2.082-1.295 3.467-1.459 3.662-4.488 1.472-2.516-1.818-4.113-1.341-5.731.994-.731 1.051-1.57 2.447-3.14.872-2.327-2.337-4.647-1.864-7.225-.253-2.654 1.658-2.87 1.524-3.323-1.671-.336-2.369-1.506-4.066-3.093-5.773-15.333-16.508-26.874-35.113-30.712-57.7-5.304-31.224.937-60.03 18.751-86.258 2.972-4.376 3.067-4.291 7.002-.907 7.437 6.394 15.027 12.594 23.101 18.177.518.358 1.008.771 1.561 1.058.57.296 1.255 1.228 1.818.347.518-.81-.541-1.185-1.049-1.57-8.244-6.251-16.451-12.562-24.153-19.467-11.49-10.301-21.596-21.877-30.659-34.361-.503-.692-1.609-1.402-.344-2.467 4.919-4.141 6.039-10.031 7.108-15.878 1.801-9.85.922-19.555-2.354-28.968-1.532-4.403-3.51-8.72-7.864-11.238-.851-.493-.764-1.054-.436-1.8 5.599-12.751 5.181-26.517 6.687-39.953 1.233-11.002 2.989-21.905 6.151-32.526 4.449-14.941 12.19-27.939 23.438-38.805.679-.656 1.698-1.141 1.866-2.828.009-.094.027-.177.031-.279-.084.051-.154.107-.236.159-2.465 1.538-4.298 3.283-6.076 5.026-1.859 1.82-3.54 3.821-5.3 5.744-.938 1.31-1.878 2.618-2.814 3.929-2.524 3.535-2.508 3.502-6.589 1.584-9.855-4.63-19.107-10.251-27.794-16.811-12.559-8.084-23.864-17.747-34.918-27.726-1.598-1.441-3.191-2.891-4.731-4.395-4.596-4.487-9.87-8.442-11.949-14.934-.016-.05-.04-.093-.055-.143-1.318-4.348-2.658-8.69-3.948-13.047-1.971-6.649-3.171-13.482-4.153-20.312-1.243-8.642-1.297-17.397-1.008-26.126.064-1.917-.156-3.792.269-5.795.598-2.816 1.509-2.591 3.519-1.535 21.31 11.189 41.456 24.162 60.287 39.16 21.734 17.313 41.585 36.566 59.447 57.858.116.139.233.276.347.415 2.859 3.48 2.856 3.476-.464 6.226-.244.202-.367.55-.547.829.986.786 1.628.045 2.271-.321 17.182-9.771 35.862-15.034 55.201-18.253 10.205-1.699 20.514-2.811 30.844-2.954 28.554-.395 56.467 3.286 83.092 14.268 3.492 1.44 6.855 3.163 10.018 5.241.849.558 2.378 1.061.739 2.477-.356.307-.308.833.103 1.185.416.352.852.211 1.233-.057.735-.519 1.446-1.067 2.162-1.611 36.419-27.733 76.954-47.078 120.996-59.206 11.008-3.03 22.3-4.76 33.528-6.76 2.234-.398 3.184.112 3.051 2.709-.484 9.665-3.246 18.741-6.837 27.601-2.073 5.112-4.038 10.335-6.763 15.102-4.201 7.352-7.576 15.2-12.775 21.97-2.532 4.318-6.747 6.372-11.017 8.518-14.529 7.309-29.779 12.687-45.335 17.278-.422.124-.886.1-1.332.146-10.06 3.313-20.349 5.764-30.675 8.042-6.478 1.428-13.017 2.577-19.527 3.852-.179 1.378.983.851 1.586 1.116 3.287-.425 6.591-.746 9.851-1.325 1.235-.22 1.807.14 2.371 1.088 3.721 6.244 7.075 12.661 9.314 19.61 4.33 10.642 6.561 21.788 8.154 33.115 3.462 24.648 5.574 49.454 8.753 74.131 2.617 20.311 6.649 40.399 10.427 60.522 1.178 6.265 2.22 12.557 3.54 18.792.443 2.084-.317 2.514-2.087 2.929-8.485 1.993-16.896 4.249-24.614 8.48-1.416.776-2.812 1.616-4.114 2.562-3.71 2.697-3.834 5.73-.211 8.503 6.602 5.053 14.233 7.989 22.174 10.078 4.594 1.207 9.304 1.974 13.983 2.846 1.731.321 2.663.923 3.173 2.888 5.167 19.996 9.635 40.152 14.196 60.289.436 1.919-.135 2.615-1.892 3.292-9.21 3.558-18.556 6.804-27.188 11.71-6.715 3.818-6.717 5.914-.377 10.342 9.401 6.568 20.09 9.433 31.173 11.114 2.438.37 2.741 1.29 2.755 3.423.133 19.393-6.288 36.824-15.801 53.344zm256.765-318.7c-19.164 7.199-38.34 14.361-57.796 20.742-27.553 9.037-55.211 17.728-83.141 25.543-3.891 1.089-3.939 1.205-2.759 4.972 6.529 20.814 13.012 41.643 19.656 62.42.753 2.355.177 2.993-1.963 3.719-15.725 5.344-31.393 10.852-47.112 16.219-2.247.767-2.95 1.731-2.206 4.139 1.676 5.395 3.058 10.882 4.557 16.332 3.141 10.826 6.26 21.66 9.447 32.475.39 1.318-.443 1.577-1.249 1.931-11.997 5.271-24.001 10.53-36.005 15.792-1.724.755-3.448 1.52-5.184 2.259-3.085 1.311-3.333 1.763-2.034 4.83a4723.82 4723.82 0 0 0 11.54 26.988c1.536 3.563 1.566 3.522-1.97 4.748-13.478 4.665-26.963 9.316-40.411 14.068-2.172.767-2.801.372-2.785-1.951.021-2.86-.071-5.783-.654-8.565-.445-2.112.328-2.842 1.974-3.666 7.39-3.696 14.688-7.585 22.107-11.217 2.365-1.155 2.58-2.266 1.442-4.538-5.257-10.524-10.326-21.143-15.514-31.704-.702-1.43-.927-2.312.877-3.134 7.268-3.312 14.47-6.772 21.694-10.179 3.063-1.458 6.086-3.01 9.206-4.337 2.05-.875 2.385-2.036 1.492-3.976-1.118-2.422-2.048-4.936-3.056-7.408l.002-.002c-6.138-15.146-12.238-30.307-18.452-45.421-.799-1.947-.514-2.693 1.483-3.457 15.932-6.102 31.887-12.142 48.06-17.58 4.148-1.396 4.192-1.559 1.66-5.257-23.824-34.788-47.631-69.587-71.52-104.33-1.414-2.058-1.506-2.997.751-4.509 57.131-38.305 115.232-75.037 175.296-108.602 5.496-3.071 5.537-2.973 8.393 2.522 17.151 33.004 34.224 66.046 48.774 100.312 2.493 5.867 4.982 11.733 6.864 17.834 1.055 1.782-.672 1.691-1.464 1.988zM262 292.109c.346.483-.006.961-.419 1.389-2.172 2.246-11.444 6.521-14.274 6.544-2.974.012-5.586-1.193-8.149-2.505-4.631-2.37-9.263-4.746-13.842-7.217-1.498-.808-2.788-.82-4.303-.075a170.031 170.031 0 0 1-13.285 5.87c-3.871 1.511-7.162.98-10.185-1.789-1.257-1.153-2.602-2.208-3.84-3.378-.536-.505-1.521-1.107-.738-1.977.821-.913 1.404.1 1.979.575 1.729 1.428 3.418 2.905 5.166 4.308 1.676 1.343 3.509 1.492 5.576.855 4.998-1.544 9.687-3.795 14.339-6.116 2.207-1.102 4.091-1.151 6.299.087 4.613 2.59 9.4 4.872 14.055 7.39 4.442 2.403 8.783 2.838 13.214-.013 2.185-1.406 4.481-2.641 6.729-3.953.566-.328 1.217-.644 1.678.005zm-45.124-28.502c-.202-1.428.908-1.906 1.987-1.973 2.055-.126 4.122-.037 6.184-.037v.08c1.972 0 3.95-.094 5.914.029 1.684.107 2.041 1.079.915 2.312-2.031 2.225-4.563 3.782-7.377 4.775-1.572.554-7.383-3.485-7.623-5.186z"/><g fill="#FCD638"><path d="M597.294 257.898c6.242-.966 12.612-1.789 18.772-2.585 3.386-.438 6.775-.876 10.158-1.338 11.586-1.585 23.097-2.547 32.828-3.279 5.388-.405 10.868-.746 16.168-1.074 3.182-.199 6.366-.396 9.548-.608 5.241-.351 10.553-.342 15.684-.329 3.336.006 6.795.014 10.193-.08l.321-.006c.939-.013 1.483-.049 1.827-.623-1.878-6.031-4.366-11.885-6.775-17.549-14.977-35.273-32.922-69.805-48.753-100.271-1.325-2.548-2.048-3.939-2.87-4.185a1.168 1.168 0 0 0-.337-.047c-.84 0-2.16.714-4.378 1.952-53.804 30.067-111.132 65.582-175.255 108.577-.941.63-1.4 1.115-1.488 1.569-.087.461.163 1.056.893 2.119 19.637 28.561 39.548 57.639 58.804 85.76l12.716 18.571c1.403 2.047 2.062 3.073 1.742 4.025-.315.944-1.423 1.354-3.698 2.121-16.313 5.484-32.677 11.687-48.037 17.571-.865.331-1.313.627-1.458.957-.142.331-.048.863.308 1.729 4.633 11.27 9.279 22.753 13.772 33.857l4.359 10.771c.404-.556.494-1.258.592-2.041.053-.404.106-.808.197-1.196.17-.716.416-1.414.654-2.087.106-.298.211-.597.31-.895l.106-1.864c-.514-3.65-1.671-7.337-2.789-10.904-.56-1.786-1.139-3.632-1.632-5.473-1.586-5.923-3.416-11.894-5.184-17.668l-.188-.611c-.209-.686-.402-1.469-.002-2.071.383-.579 1.127-.723 1.736-.787 1.848-.193 3.694-.429 5.539-.666 2.188-.28 4.451-.569 6.69-.781 15.057-1.421 26.538-3.168 37.229-5.661 2.53-.59 5.087-1.187 7.633-1.623.764-.133 1.212-.308 1.327-.521.124-.227.023-.73-.305-1.497-2.514-5.902-4.986-11.94-7.376-17.779-1.272-3.106-2.544-6.212-3.829-9.312l-1.901-4.596c-7.098-17.143-14.438-34.87-21.738-52.27-.432-1.031-.507-1.714-.246-2.284.298-.659.973-.994 1.963-1.321 9.135-3.023 18.666-5.011 27.886-6.933l4.481-.939c10.519-2.225 21.309-3.892 31.745-5.505l2.058-.32zM369.023 646.799c8.157-3.434 15.103-9.031 21.823-14.444l.728-.583c-.565-2.523-2.388-4.089-4.314-5.744a49.77 49.77 0 0 1-1.373-1.208c-4.745-4.392-10.578-6.256-18.375-5.826-.264.014-.535.039-.803.062-1.221.115-2.599.239-3.882-.523-.808-.131-1.214-.135-1.618.505-4.719 7.433-7.648 15.941-8.955 26.008-.078.592.037.737.06.76.063.06.302.108.742.034 1.687-.278 2.612-.746 2.988-2.537 1.183-5.631 3.615-11.127 7.882-17.815a4.97 4.97 0 0 0 .218-.381c.292-.537.657-1.208 1.332-1.38a1.32 1.32 0 0 1 .312-.039c.282 0 .574.096.865.285.388.253.62.567.689.937.117.634-.289 1.194-.615 1.641-.119.165-.239.321-.312.473-.567 1.146-1.217 2.264-1.846 3.345l-.264.457a50.218 50.218 0 0 0-5.96 16.136 6.072 6.072 0 0 1-.114.468c-.218.81-.182.921.346 1.072 1.368.39 3.565-.732 4.123-2.11 2.362-5.81 5.891-11.432 10.781-17.192l.149-.191c.31-.404.95-1.244 2.101-.629l.243.131.055.273c.236 1.175-.425 1.919-.955 2.518-.138.154-.275.305-.39.464-3.189 4.403-5.748 8.574-7.828 12.755-.133.271-.303.558-.478.854-.657 1.113-1.051 1.883-.558 2.392.42.436 1.166.089 2.252-.491.329-.177.652-.351.951-.477z"/><path d="m442.487 585.534 1.067-.551c4.458-5.184 7.943-11.022 11.132-16.559 10.845-18.831 15.843-35.689 15.728-53.049-.014-2-.236-2.541-2.254-2.847-9.141-1.387-20.973-3.912-31.423-11.212-3.042-2.126-5.048-3.949-4.956-5.944.08-1.703 1.637-3.264 5.379-5.393 7.305-4.151 15.225-7.16 22.886-10.071 1.46-.556 2.922-1.111 4.382-1.676 1.605-.62 1.878-1.084 1.529-2.612l-1.607-7.114c-3.946-17.466-8.028-35.526-12.585-53.159-.455-1.756-1.205-2.176-2.711-2.456l-2.727-.5c-3.724-.677-7.573-1.377-11.297-2.355-9.44-2.484-16.552-5.719-22.383-10.181-1.928-1.476-2.895-3.056-2.874-4.697.021-1.671 1.063-3.267 3.097-4.747 1.182-.859 2.548-1.71 4.178-2.603 8.014-4.392 16.983-6.708 24.761-8.535 1.664-.39 1.99-.627 1.648-2.236-.891-4.201-1.667-8.494-2.415-12.645a994.986 994.986 0 0 0-1.129-6.162c-.569-3.037-1.146-6.077-1.722-9.114-3.189-16.803-6.485-34.18-8.71-51.442-1.405-10.905-2.622-22.014-3.797-32.759-1.488-13.576-3.023-27.612-4.956-41.365-1.288-9.167-3.359-21.128-7.961-32.594-3.848.085-7.328-1.398-10.565-4.541-4.256-4.13-8.531-8.795-11.012-14.932-.071-.006-.152-.009-.22-.013-.383-.016-.907-.038-1.253-.451-.248-.293-.333-.694-.264-1.23.592-1.542.308-2.949.007-4.438-.115-.568-.23-1.134-.296-1.698-.218-1.778-.214-2.887.436-3.651.654-.77 1.791-.962 3.535-1.033 4.341-.174 8.747.047 12.996.264 3.147.162 6.4.328 9.603.328h.259c6.449-.02 13.441-.682 22.006-2.082.753-.124 1.49-.071 2.218-.096.112-.013.269-.021.422-.029.28-.015.544-.029.764-.093 18.106-5.344 32.479-10.823 45.236-17.239l.264-.133c4.174-2.097 8.118-4.078 10.51-8.158 3.586-4.675 6.331-9.901 8.985-14.956 1.214-2.311 2.47-4.702 3.788-7.008 2.326-4.069 4.125-8.556 5.868-12.894l.861-2.137c4.277-10.557 6.373-19.011 6.793-27.41.053-1.028-.08-1.692-.395-1.97-.308-.272-.932-.318-1.965-.131-1.942.346-3.884.684-5.829 1.022-9.13 1.587-18.57 3.228-27.647 5.728-44.881 12.359-85.521 32.245-120.797 59.106l-.312.239c-.618.469-1.235.939-1.866 1.385-.948.66-1.628.301-1.954.024-.347-.297-.546-.704-.549-1.116 0-.372.156-.714.443-.961.535-.464.523-.669.521-.677-.014-.164-.517-.457-.785-.613-.145-.085-.287-.168-.415-.251-2.979-1.957-6.315-3.703-9.919-5.189-24.261-10.006-51.372-14.644-82.86-14.223-9.581.132-19.642 1.095-30.755 2.945-22.214 3.697-39.694 9.475-55.007 18.184-.101.057-.201.126-.304.195-.552.371-1.476.992-2.623.075l-.414-.331.286-.447c.049-.076.092-.157.137-.24.129-.24.274-.513.53-.724 2.868-2.376 2.868-2.376.385-5.398l-.344-.412c-17.598-20.978-37.57-40.417-59.362-57.775-18.32-14.59-38.572-27.746-60.194-39.099-.737-.387-1.558-.784-1.901-.621-.201.094-.498.475-.77 1.757-.281 1.327-.266 2.583-.25 3.914.007.592.014 1.183-.006 1.779-.239 7.211-.341 16.685 1.002 26.023.868 6.033 2.037 13.155 4.135 20.228.888 3 1.801 5.993 2.712 8.985l1.235 4.059c1.723 5.349 5.451 8.825 9.399 12.503.825.769 1.649 1.538 2.454 2.323 1.566 1.528 3.188 3.002 4.714 4.379 10.506 9.485 22 19.401 34.843 27.668 1.263.512 2.612 1.087 3.962 1.663 2.944 1.256 5.988 2.555 9.038 3.654 8.592 3.1 15.915 5.288 23.636 5.869.469-.515.933-1.035 1.397-1.555 1.193-1.337 2.427-2.722 3.734-4.001 1.848-1.812 3.712-3.567 6.175-5.104l1.171-.722-.036 1.081a2.128 2.128 0 0 1-.024.238c-.17 1.682-1.033 2.404-1.662 2.932-.137.114-.27.224-.39.341-10.996 10.623-18.829 23.594-23.283 38.55-2.732 9.176-4.68 19.479-6.131 32.424-.364 3.245-.62 6.57-.867 9.785-.779 10.121-1.584 20.585-5.867 30.339-.303.686-.239.806.193 1.055 4.514 2.611 6.573 7.096 8.124 11.554 3.361 9.66 4.161 19.508 2.377 29.267-1.071 5.852-2.179 11.903-7.308 16.222-.232.195-.365.374-.375.506-.015.195.242.488.469.745.125.142.247.282.347.42 9.595 13.216 19.597 24.426 30.576 34.268 7.68 6.887 15.79 13.124 24.115 19.438.088.067.196.133.309.202.424.264.953.59 1.084 1.171.075.324.006.654-.203.983-.225.354-.511.562-.846.624-.552.094-1.019-.246-1.389-.526-.121-.092-.236-.181-.349-.241-.426-.22-.805-.5-1.172-.769-.15-.11-.3-.22-.452-.326-8.892-6.15-17.043-12.966-23.151-18.216-1.744-1.499-2.797-2.433-3.422-2.316-.627.083-1.438 1.235-2.71 3.108-17.643 25.976-23.921 54.853-18.658 85.829 3.426 20.17 13.424 38.946 30.562 57.399 1.459 1.57 2.862 3.393 3.245 6.09.094.666.292 2.055.523 2.215.267.108 1.415-.652 1.907-.96 2.187-1.364 5.064-2.562 7.952.335.259.259.65.542.941.535.411-.039.83-.647 1.201-1.182l.1-.145c.965-1.393 1.913-2.128 2.982-2.312 1.072-.184 2.211.191 3.576 1.175.784.569 1.983 1.437 2.343 1.313.351-.108.808-1.329 1.25-2.514l.054-.142c.498-1.348 1.125-3.03 3.655-2.298.527.152 1.092.374 1.664.601 1.407.558 2.859 1.136 3.639.51.904-.732.95-2.447.994-4.105.015-.558.03-1.107.076-1.618.161-1.804.735-3.889 3.763-3.972 1.163-.032 2.54-.145 2.876-.746.236-.425.032-1.219-.591-2.3-.376-.654-.284-1.495-.201-2.236.018-.17.037-.337.048-.496.15-2.022.316-4.045.48-6.068.277-3.386.562-6.885.768-10.328.877-14.667.551-26.52-1.026-37.303-2.117-14.502-7.627-27.495-12.739-38.292-.081-.174-.195-.344-.308-.517-.413-.634-.979-1.504-.364-2.626l.2-.365.411.067c.078.014.15.018.216.025.211.016.475.037.693.236.357.335.613.647.791.962 8.048 14.265 12.988 29.123 14.683 44.16 1.856 16.476.807 32.897-.313 45.363-.055.615-.138 1.235-.22 1.855-.263 1.97-.511 3.832.073 5.668.729 2.293 1.077 3.386.583 4.215s-1.618 1.045-3.859 1.469a1.909 1.909 0 0 0-.238.067 2.763 2.763 0 0 1-.702.119c-1.391-.117-1.913.457-2.006 1.974-.085 1.357-.335 2.704-.579 4.011-.101.544-.203 1.09-.293 1.637-.168 1.022-.569 1.747-1.194 2.163-.612.411-1.411.496-2.378.262a53.552 53.552 0 0 0-1.07-.241c-.433-.094-.867-.188-1.298-.296-3.204-.799-3.199-.794-4.301 2.213-.471 1.286-1.094 2.05-1.904 2.337-.791.273-1.716.092-2.824-.569a12.84 12.84 0 0 0-.473-.269c-.411-.227-.837-.461-1.212-.787-.832-.728-1.561-1.054-2.144-.964-.579.087-1.151.585-1.705 1.483-.784 1.274-1.701 1.986-2.725 2.119-.983.126-2-.296-3.01-1.263-1.576-1.504-3.037-1.589-4.736-.271-.393.303-.83.503-1.252.696-.243.11-.487.22-.715.354-1.556.904-2.577.728-3.165.42-.548-.287-1.226-.964-1.349-2.553-.309-4.04-2.817-6.648-5.472-9.41l-.345-.36c-.657-.684-.876-.732-.914-.735-.038.03-.2.214-.533 1.035-2.997 7.42-6.395 15.831-10.762 23.59-3.672 6.52-5.993 12.066-7.305 17.454-2.56 10.517-1.98 20.682 1.724 30.214 5.491 5.381 11.128 8.953 17.23 10.918 12.513 4.031 25.112 3.62 38.519-1.256 2.996-1.088 5.985-2.365 8.875-3.6 4.982-2.128 10.133-4.33 15.541-5.673 5.886-1.465 11.853-2.192 18.073-2.192 2.422 0 4.883.11 7.394.331 14.829 1.295 28.783 6.341 42.28 11.221 1.527.551 3.054 1.104 4.582 1.651 18.862 6.747 35.916 12.624 53.605 16.201 7.14 1.444 14.537 2.231 21.989 2.342 8.12.122 17.569.232 26.956-.011 15.434-.397 28.469-3.517 39.851-9.536.714-.382 1.432-.752 2.151-1.121zM182.5 248.598c-3.629 3.844-8.55 5.947-13.76 5.947-.75 0-1.506-.044-2.265-.131-5.996-.698-11.164-4.079-14.176-9.278-5.799-10.01-3.713-25.938 4.464-34.085 4.928-4.91 11.115-6.747 18.39-5.472 6.384 1.121 9.311 6.172 11.334 10.964 1.569 3.72 2.291 7.943 2.207 12.912-.2 6.303-.859 13.492-6.194 19.143zm178.864 19.994c17.41 0 31.655 13.982 31.763 31.182.053 8.328-3.214 16.205-9.197 22.182-5.996 5.991-13.923 9.281-22.346 9.281l-.234-.001c-8.939-.064-17.168-3.565-23.17-9.861-5.647-5.922-8.582-13.524-8.264-21.405-.013-8.396 3.238-16.29 9.154-22.202 5.915-5.911 13.822-9.17 22.267-9.177l.027.001zm-46.339-59.535c8.162-3.454 17.645-2.307 25.363 3.068 7.992 5.566 12.501 14.565 12.062 24.074-.098 6.364-2.027 14.935-10.667 19.522-4.72 2.508-9.663 3.766-14.464 3.766-4.369 0-8.62-1.041-12.485-3.129-7.852-4.244-13.046-12.29-13.893-21.524-1.142-12.482 3.728-21.395 14.084-25.777zm-98.314 52.9c.553-.678 1.455-.87 2.115-.91h.001c1.474-.091 2.967-.07 4.412-.053.603.007 1.205.015 1.807.015h.588v.078c.398-.003.797-.009 1.195-.015 1.365-.016 2.775-.039 4.168.047 1.336.085 1.833.639 2.016 1.09.183.453.21 1.204-.704 2.204-2.006 2.199-4.57 3.859-7.616 4.933a1.612 1.612 0 0 1-.536.083c-1 0-2.363-.686-3.411-1.323-1.447-.879-4.242-2.935-4.451-4.417-.098-.691.042-1.274.416-1.732zm-8.768 34.705c-4.112 1.604-7.642.984-10.795-1.903-.567-.521-1.152-1.02-1.738-1.521a55.702 55.702 0 0 1-2.109-1.864l-.226-.201c-.42-.364-.942-.816-.985-1.483-.024-.388.124-.762.44-1.112.327-.365.688-.554 1.07-.564.639-.001 1.063.432 1.422.793.101.102.2.203.298.285.691.572 1.376 1.15 2.062 1.729 1.026.868 2.051 1.734 3.098 2.575 1.419 1.138 3.019 1.374 5.036.752 4.999-1.544 9.781-3.851 14.249-6.08 2.444-1.22 4.555-1.185 6.849.1 2.604 1.462 5.312 2.85 7.932 4.193a311.217 311.217 0 0 1 6.117 3.193c4.681 2.533 8.693 2.538 12.616.009 1.524-.98 3.121-1.889 4.666-2.769.696-.397 1.392-.793 2.085-1.197.451-.266 1.646-.96 2.451.171.676.946-.191 1.843-.475 2.138-2.285 2.363-11.758 6.699-14.691 6.723h-.044c-3.1 0-5.838-1.268-8.377-2.569-4.959-2.538-9.424-4.834-13.853-7.223-1.321-.714-2.412-.73-3.765-.065a172.294 172.294 0 0 1-13.333 5.89zm65.314 83.649c-6.288 9.653-14.019 16.375-23.635 20.549a8.537 8.537 0 0 1-3.433.705c-2.087 0-4.032-.702-5.639-1.414-10.467-4.651-18.867-12.328-25.68-23.466l-.781-1.276 1.441.402c9.174 2.571 18.53 2.798 26.455 2.702 1.679-.023 3.359-.039 5.039-.053 5.397-.051 10.977-.103 16.446-.397.97-.051 1.94-.122 2.91-.193 1.68-.124 3.418-.25 5.143-.273.807 0 1.732.064 2.113.753.412.744-.182 1.66-.379 1.961zm131.429 79.33c-5.349 5.882-12.068 9.708-18.492 13.127a73.291 73.291 0 0 0-2.72 1.547c-2.599 1.527-5.285 3.104-8.427 3.698-10.955 9.814-19.876 16.582-28.908 21.931-.767.455-1.528.93-2.289 1.405-2.058 1.286-4.185 2.615-6.46 3.54-8.09 3.294-14.065 7.286-18.802 12.564-1.226 1.364-2.161 1.972-3.059 1.972-.095 0-.189-.007-.284-.021-.985-.138-1.785-.985-2.674-2.828-.616-1.279-1.168-1.933-1.791-2.124-.612-.184-1.435.037-2.592.709-1.499.875-2.472 1.384-3.341 1.129-.902-.264-1.396-1.23-2.293-2.98l-.38-.721c-1.582-3.09-1.581-3.092-4.777-2.091-1.077.335-2.443.64-3.465-.032-.721-.471-1.141-1.336-1.282-2.64-.153-1.423-.525-2.307-1.135-2.709-.566-.372-1.447-.376-2.619-.014-1.144.363-2.058.278-2.715-.243-.702-.556-1.01-1.531-.915-2.902.017-.241.003-.489-.008-.737-.018-.388-.037-.79.032-1.203.153-.907.083-1.527-.214-1.892-.321-.399-1.016-.618-2.122-.666-1.838-.083-3.149-.321-3.574-1.224-.413-.875.164-1.938 1.158-3.264 3.105-4.137 3.295-8.767 3.497-13.668.026-.643.053-1.286.086-1.926 1.354-26.1 9.606-50.438 24.527-72.344 6.995-10.271 16.103-19.509 27.843-28.237l.157-.126c.375-.303 1.001-.808 2.052-.386l.36.149.003.39c.009 1.256-.905 1.873-1.573 2.323-.174.117-.346.232-.495.356-12.71 10.549-21.708 20.399-28.316 30.999-12.272 19.683-19.059 39.13-20.748 59.447a92.946 92.946 0 0 1-.359 3.333c-.185 1.538-.375 3.129-.448 4.69-.031.691-.052 1.387-.072 2.082-.142 4.8-.289 9.754-4.058 14.318 1.936-.073 3.378.425 4.304 1.361 1.454 1.478 1.364 3.854 1.121 5.758-.052.413.024.517.024.519.104.103.794.021 1.022-.007 4.373-.539 4.704-.315 5.823 4.017.18.707.329 1.288.606 1.444.212.117.652.087 1.26-.101 4.838-1.483 5.328-1.26 7.506 3.437.475 1.031.886 1.556 1.331 1.708.44.152 1.069-.005 1.986-.484.419-.218.787-.418 1.115-.595 2.868-1.554 3.235-1.435 4.884 1.568l.537.971c.367.654 1.051 1.871 1.336 1.901.254.041 1.273-1.093 1.593-1.462 4.884-5.65 11.395-8.825 17.138-11.625 12.692-6.187 24.629-14.495 35.48-24.69 1.66-3.416 3.735-6.635 5.742-9.747a220.167 220.167 0 0 0 2.397-3.77c3.545-5.725 7.105-11.947 11.21-19.571a1493.08 1493.08 0 0 0 7.337-13.884c1.111-2.119 2.222-4.238 3.338-6.354l.154-.305c.386-.771.914-1.827 2.149-1.83h.007c1.396 0 1.935 1.185 2.33 2.048l.135.292c1.534 3.216 2.124 6.694 2.691 10.06.099.583.197 1.166.301 1.747.562 3.18.556 6.407.549 9.532-.002 1.414-.005 2.828.044 4.242.111 3.265-1.083 6.155-3.758 9.089zM67.306 92.965zM163.163 637.341c.153-.085.301-.163.441-.232 8.611-4.148 16.659-8.946 23.926-14.265.235-3.685-.577-7.443-2.619-12.137-2.836-6.522-7.852-9.904-14.91-10.051-8.129 6.887-16.343 22.337-16.6 30.351 2.393-6.097 5.517-12.16 10.995-16.722l.713-.592.233.898c.364 1.405-.39 2.234-.941 2.84a6.288 6.288 0 0 0-.422.498c-3.004 4.146-6.662 9.77-8.292 16.529l-.077.303c-.14.546-.313 1.224-.116 1.529.091.14.295.239.605.292 1.739.289 2.528-.032 2.858-1.15 1.621-5.5 5.241-9.543 9.455-13.882.076-.078.152-.165.23-.255.519-.59 1.38-1.568 3.037-.916h.062l.755.498-.507.507c-.405.489-.834.992-1.255 1.485-.892 1.047-1.732 2.034-2.524 3.065a102.01 102.01 0 0 1-1.232 1.566c-2.065 2.599-4.015 5.05-4.882 8.221a9.336 9.336 0 0 1-.2.608c-.272.767-.348 1.12-.112 1.336.251.224.628.082 1.379-.324z"/></g><g fill="#C27033"><path d="M550.081 436.746c-2.424-8.225-4.809-16.46-7.195-24.695l-1.398-4.828c-.112 1.203-.227 2.406-.333 3.609l-.023.305c-.057.799-.145 2.006-1.208 2.335-1.286.399-1.752-.787-1.965-1.364-.062-.165-.119-.328-.193-.459-1.054-1.885-2.08-3.786-3.18-5.82l-.613-1.132c-.292 1.579-.411 3.106-.526 4.596-.094 1.205-.181 2.346-.356 3.505l-.028.207c-.062.487-.174 1.389-1.136 1.575-.799.154-1.203-.478-1.453-.854l-.115-.17c-1.04-1.442-2.087-2.874-3.196-4.394l-.691-.946c-.37 1.306-.539 2.576-.707 3.813-.08.599-.161 1.191-.262 1.781l-.051.358c-.103.758-.241 1.795-1.315 2.144-.964.301-1.568-.434-1.924-.879-.108-.135-.214-.269-.328-.374-.978-.888-1.885-1.866-2.762-2.81-1.194-1.286-2.952-3.15-4.357-4.238l-.064.95c-.129.452-.236.76-.344 1.065-.239.673-.464 1.311-.62 1.965a9.974 9.974 0 0 0-.174 1.074c-.133 1.047-.053 1.984-1.042 2.861.241.597.78 1.976 1.018 2.576.68 1.715 1.382 3.485 2.16 5.177.546 1.185.659 2.103.358 2.888-.303.781-.985 1.377-2.153 1.873-2.19.932-4.373 1.995-6.485 3.023-.898.438-1.795.875-2.697 1.304l-5.698 2.695c-5.232 2.482-10.645 5.046-16.005 7.488-.579.264-.921.533-1.017.797-.117.328.076.833.425 1.543a3167.64 3167.64 0 0 1 5.987 12.28c3.099 6.377 6.304 12.973 9.525 19.421.705 1.407.886 2.367.601 3.207-.278.822-.989 1.476-2.312 2.121-4.231 2.071-8.496 4.265-12.622 6.384a937.76 937.76 0 0 1-9.479 4.83c-1.561.781-2.02 1.327-1.664 3.019.622 2.966.686 6.058.668 8.691-.009 1.168.165 1.538.315 1.644.142.101.558.149 1.687-.25 11.777-4.162 23.776-8.315 35.383-12.33l5.03-1.74c1.419-.491 2.388-.826 2.534-1.159.149-.34-.273-1.32-.859-2.677a4801.142 4801.142 0 0 1-11.595-27.114c-1.405-3.32-1.054-4.155 2.346-5.601 1.329-.565 2.652-1.146 3.974-1.726l6.127-2.686c10.363-4.543 20.725-9.084 31.081-13.634l.156-.069c.798-.34.979-.448.77-1.155zM438.456 498.764c7.617 5.335 16.674 8.607 29.362 10.606 1.155.179 2.245.354 2.436.216.112-.133.09-.927.069-1.628-.645-10.17-1.648-18.565-3.157-26.398-.135-.696-.294-.829-.34-.854a.274.274 0 0 0-.129-.025c-.122 0-.337.039-.714.191-2.208.891-4.431 1.747-6.653 2.606-6.94 2.674-14.114 5.443-20.698 9.213-1.798 1.031-3.554 2.101-3.588 2.849-.034.747 1.667 2.003 3.412 3.224zM412.824 395.226c-.007.893 1.104 1.99 3.719 3.673 10.535 6.772 22.553 9.355 32.918 10.989.647.135.794.053.801.053-.005 0 .087-.17-.073-.882a1709.498 1709.498 0 0 1-5.636-25.985c-.119-.581-.266-.918-.45-1.035a.565.565 0 0 0-.305-.069c-.124 0-.275.021-.45.064-9.066 2.197-18.444 4.47-26.765 9.614-2.627 1.622-3.749 2.692-3.759 3.578z"/></g><path fill="#DFA63C" d="M403.841 170.743c3.721 6.244 7.075 12.661 9.314 19.61-4.206.219-7.566-1.466-10.546-4.36-4.527-4.393-8.646-9.043-10.989-15.014 3.287-.425 6.591-.746 9.851-1.325 1.234-.22 1.806.141 2.37 1.089zm309.585 77.286c-.56 1.249-1.671 1.133-2.764 1.162-8.614.236-17.222-.168-25.854.408-8.567.572-17.144 1.038-25.712 1.683-10.96.824-21.901 1.785-32.791 3.275-9.64 1.318-19.309 2.435-28.921 3.922-11.286 1.747-22.587 3.453-33.77 5.818-10.847 2.294-21.747 4.361-32.305 7.855-1.628.538-2.119 1.009-1.359 2.82 7.943 18.93 15.788 37.9 23.641 56.869 3.737 9.028 7.374 18.099 11.203 27.087.813 1.908.427 2.5-1.465 2.826-2.548.438-5.076 1.028-7.599 1.616-12.289 2.867-24.761 4.49-37.307 5.675-4.084.386-8.145 1.019-12.225 1.446-1.552.161-1.641.76-1.23 2.1 1.862 6.079 3.733 12.16 5.376 18.299 1.483 5.519 3.655 10.859 4.44 16.568 2.92 1.951 4.938 4.841 7.498 7.169.505.459.884 1.382 1.676 1.127.856-.278.836-1.26.969-2.041.367-2.16.459-4.38 1.343-6.772 1.637 2.245 3.11 4.252 4.566 6.272.264.365.505.884.98.792.629-.122.613-.755.696-1.292.459-3.067.328-6.217 1.23-9.679 1.642 3.024 3.063 5.691 4.536 8.326.358.636.446 1.867 1.474 1.55.776-.239.744-1.32.817-2.13.197-2.227.416-4.451.627-6.676-1.499-5.45-2.881-10.936-4.557-16.332-.744-2.408-.041-3.372 2.206-4.139 15.718-5.367 31.387-10.875 47.112-16.219 2.14-.725 2.716-1.364 1.963-3.719-6.644-20.777-13.127-41.606-19.656-62.42-1.18-3.767-1.132-3.883 2.759-4.972 27.929-7.814 55.588-16.506 83.141-25.543 19.456-6.381 38.632-13.542 57.796-20.742.793-.297 2.52-.206 1.466-1.989zm-323.393-78.165c6.51-1.275 13.049-2.424 19.527-3.852 10.326-2.277 20.615-4.729 30.675-8.042-.716.025-1.444-.026-2.144.088-7.319 1.197-14.656 2.067-22.098 2.09-7.622.022-15.209-.907-22.838-.592-3.379.138-3.811.761-3.411 4.027.247 2.056 1.134 4.151.289 6.281zM240.787 399.613c2.725 1.207 5.648 1.988 8.601.707 9.928-4.309 17.518-11.336 23.377-20.331.957-1.472.203-1.827-1.233-1.807-2.688.035-5.359.324-8.03.466-7.159.384-14.346.354-21.508.45-8.879.12-17.847-.264-26.622-2.723 6.286 10.281 14.428 18.355 25.415 23.238zm146.082 60.294c5.932-8.898 11.506-18.009 15.629-27.929.193-.466.542-.872.861-1.371.964.583.611 1.26.415 1.906-.934 3.108-2.296 6.035-3.77 8.914-6.74 13.182-14.699 25.509-25.227 36.037 4.181-.739 7.521-3.292 11.141-5.216 6.662-3.545 13.166-7.323 18.333-13.003 2.259-2.479 3.724-5.177 3.604-8.673-.156-4.568.221-9.153-.583-13.691-.702-3.955-1.185-7.971-2.943-11.658-.415-.87-.79-2.006-1.94-2.004-1.003.002-1.368 1.028-1.786 1.821-3.556 6.749-7.064 13.524-10.677 20.243-3.567 6.63-7.259 13.191-11.226 19.603-2.771 4.483-5.854 8.79-8.157 13.56 6.326-5.403 11.721-11.638 16.326-18.539zm13.632 136.869c-8.99.23-17.989.145-26.981.012a120.554 120.554 0 0 1-22.096-2.353c-18.393-3.719-36.058-9.917-53.687-16.224-15.241-5.454-30.318-11.407-46.716-12.84-8.59-.751-16.941-.227-25.273 1.845-8.495 2.112-16.191 6.286-24.357 9.256-12.89 4.688-25.813 5.477-38.9 1.262-6.777-2.183-12.498-6.175-17.552-11.148.047.264.033.555.149.783 6.825 13.184 16.057 24.04 29.678 30.645.371.181.869.289.821 1.088-1.872.496-4.377-1.965-5.796.96 7.47.087 12.708 3.623 15.659 10.409 1.746 4.013 2.997 8.199 2.648 12.682l.001.002c6.019-4.298 12.109-8.517 16.986-14.713-3.574-.491-6.682-.805-9.742-1.372-3.437-.641-6.833-1.497-10.24-2.296-.496-.115-1.141-.358-1.004-1.033.142-.705.813-.546 1.325-.496.444.046.884.156 1.319.266 8.923 2.252 18.029 3.072 27.184 3.639 10.795.668 21.569.402 32.313-.659 7.449-.735 14.866-1.809 22.297-2.732l-.039-.737h-15.844c.224-.579.438-.73.667-.753 14.138-1.449 28.203-.668 42.134 1.894 15.532 2.86 30.983 6.166 46.494 9.128 19.339 3.696 38.687 4.061 58.113.317 18.446-3.554 33.26-12.512 43.866-28.154-1.107.574-2.218 1.136-3.315 1.717-12.55 6.636-26.092 9.244-40.112 9.605zM153.342 155.39c.937-1.311 1.877-2.619 2.814-3.929-8.366-.587-16.272-3.106-24.078-5.923-4.441-1.601-8.75-3.571-13.119-5.375 8.687 6.56 17.939 12.181 27.794 16.811 4.081 1.919 4.065 1.952 6.589-1.584zm255.564 457.956c-7.266 2.08-14.676 3.308-22.188 4.114-7.893.849-15.787.427-23.682.51 1.403.893 2.98.516 4.445.436 7.048-.376 13.478 1.051 18.806 5.982 2.392 2.211 5.307 4.027 5.932 7.617 7.284-5.2 13.159-11.781 18.747-18.792-.899-.37-1.461-.037-2.06.133z"/><g fill="#FFF"><path d="M319.86 214.713c-5.424.077-9.673 4.494-9.673 10.055.001 2.723.72 4.816 2.135 6.224 1.341 1.333 3.271 2.009 5.74 2.009h.071c6.011-.03 9.731-3.882 9.71-10.054-.01-2.321-.893-4.458-2.484-6.02-1.483-1.457-3.424-2.296-5.499-2.214zM175.685 213.188a4.61 4.61 0 0 0-.663-.048c-1.535 0-3.062.769-4.278 2.174-2.407 2.785-2.836 7.899-.917 10.946 1.004 1.594 2.402 2.577 3.935 2.765 1.494.182 3.022-.403 4.323-1.649 1.983-1.9 2.8-3.654 2.646-5.69-.096-1.773-.241-3.486-.947-5.062-.864-1.928-2.358-3.18-4.099-3.436z"/></g><g fill="#EF5C33"><path d="M128.201 259.955c-1.094 2.398-2.319 4.775-3.503 7.073-.691 1.34-1.382 2.68-2.05 4.029-2.428 4.9-3.299 9.162-2.741 13.414 1.206 9.186 5.848 17.091 10.339 24.737l.666 1.134c.371.634.492.577.521.576.083 0 .289-.085.795-.584a13.079 13.079 0 0 0 2.999-4.463c2.298-5.654 3.374-11.824 3.289-18.861.13-5.916-.823-12.036-2.753-17.717-1.436-4.225-3.253-7.284-5.719-9.627-.468-.445-.817-.67-1.04-.67a.238.238 0 0 0-.055.006c-.103.019-.383.152-.748.953zM361.84 271.756c-.14-.002-.285-.003-.425-.003-15.34 0-28.114 12.117-28.572 27.204-.236 7.759 2.548 15.038 7.841 20.492 5.329 5.494 12.767 8.643 20.407 8.643h.009c15.746.132 28.68-12.163 28.873-27.531.198-15.92-12.16-28.572-28.133-28.805z"/></g></svg>